<?xml version="1.0" encoding="UTF-8" standalone="no"?>
<svg
   version="1.1"
   x="0px"
   y="0px"
   viewBox="0 0 48.025002 47.900002"
   enable-background="new 0 0 90 90"
   xml:space="preserve"
   id="svg26"
   sodipodi:docname="noun-compass-59437.svg"
   width="48.025002"
   height="47.900002"
   xmlns:inkscape="http://www.inkscape.org/namespaces/inkscape"
   xmlns:sodipodi="http://sodipodi.sourceforge.net/DTD/sodipodi-0.dtd"
   xmlns="http://www.w3.org/2000/svg"
   xmlns:svg="http://www.w3.org/2000/svg"><defs
     id="defs30" /><sodipodi:namedview
     id="namedview28"
     pagecolor="#ffffff"
     bordercolor="#000000"
     borderopacity="0.25"
     inkscape:showpageshadow="2"
     inkscape:pageopacity="0.0"
     inkscape:pagecheckerboard="0"
     inkscape:deskcolor="#d1d1d1"
     showgrid="false" /><path
     d="m 41.05,7 c -4.5,-4.5 -10.6,-7 -17,-7 -6.4,0 -12.4,2.5 -17,7 -9.4,9.4 -9.4,24.6 0,33.9 4.5,4.5 10.6,7 17,7 6.4,0 12.4,-2.5 17,-7 9.3,-9.3 9.3,-24.5 0,-33.9 z m -2.9,31.1 c -3.7,3.8 -8.8,5.9 -14.1,5.9 -5.3,0 -10.4,-2.1 -14.1,-5.9 -7.8,-7.8 -7.8,-20.5 0,-28.3 3.7,-3.7 8.8,-5.8 14.1,-5.8 5.3,0 10.4,2.1 14.1,5.9 7.8,7.8 7.8,20.4 0,28.2 z"
     id="path18"
     style="fill:#ff8000;fill-opacity:1" /><path
     d="m 33.25,12.2 -14.2,5.7 c 0,0 0,0 -0.1,0 -0.1,0 -0.1,0.1 -0.2,0.1 -0.1,0 -0.1,0.1 -0.2,0.1 -0.1,0 -0.1,0.1 -0.2,0.2 -0.1,0.1 -0.1,0.1 -0.2,0.2 0,0.1 -0.1,0.1 -0.1,0.2 0,0.1 -0.1,0.1 -0.1,0.2 0,0 0,0 0,0.1 l -5.7,14.1 c -0.3,0.7 -0.1,1.6 0.4,2.2 0.4,0.4 0.9,0.6 1.4,0.6 0.2,0 0.5,0 0.7,-0.1 l 14.3,-5.7 c 0,0 0,0 0.1,0 0.1,0 0.1,-0.1 0.2,-0.1 0.1,0 0.1,-0.1 0.2,-0.1 0.1,-0.1 0.1,-0.1 0.2,-0.2 0.1,-0.1 0.1,-0.1 0.2,-0.2 0.1,-0.1 0.1,-0.1 0.1,-0.2 0,-0.1 0.1,-0.1 0.1,-0.2 0,0 0,0 0,-0.1 l 5.7,-14.1 c 0.3,-0.7 0.1,-1.6 -0.4,-2.2 -0.7,-0.6 -1.5,-0.8 -2.2,-0.5 z m -12.7,11.1 3.5,3.5 0.7,0.7 -7,2.8 z"
     id="path20"
     style="fill:#ff8000;fill-opacity:1" /></svg>
